{
    "asset" : {
        "generator" : "Khronos glTF Blender I/O v1.8.19",
        "version" : "2.0"
    },
    "scene" : 0,
    "scenes" : [
        {
            "name" : "Scene",
            "nodes" : [
                0
            ]
        }
    ],
    "nodes" : [
        {
            "mesh" : 0,
            "name" : "Tree2_Icosphere.001",
            "rotation" : [
                0.7071068286895752,
                0,
                0,
                0.7071067094802856
            ]
        }
    ],
    "materials" : [
        {
            "doubleSided" : true,
            "name" : "Leaves",
            "pbrMetallicRoughness" : {
                "baseColorFactor" : [
                    0.5211250185966492,
                    0.6392819881439209,
                    0.18157300353050232,
                    1
                ],
                "metallicFactor" : 0,
                "roughnessFactor" : 0.690034806728363
            }
        },
        {
            "doubleSided" : true,
            "name" : "Tree",
            "pbrMetallicRoughness" : {
                "baseColorFactor" : [
                    0.19696000218391418,
                    0.09103500097990036,
                    0.03682899847626686,
                    1
                ],
                "metallicFactor" : 0,
                "roughnessFactor" : 0.690034806728363
            }
        }
    ],
    "meshes" : [
        {
            "name" : "Tree2_Icosphere.001",
            "primitives" : [
                {
                    "attributes" : {
                        "POSITION" : 0,
                        "NORMAL" : 1
                    },
                    "indices" : 2,
                    "material" : 0
                },
                {
                    "attributes" : {
                        "POSITION" : 3,
                        "NORMAL" : 4
                    },
                    "indices" : 5,
                    "material" : 1
                }
            ]
        }
    ],
    "accessors" : [
        {
            "bufferView" : 0,
            "componentType" : 5126,
            "count" : 536,
            "max" : [
                1.507114052772522,
                3.013995885848999,
                -3.1944339275360107
            ],
            "min" : [
                -1.3877869844436646,
                -3.4152278900146484,
                -4.895011901855469
            ],
            "type" : "VEC3"
        },
        {
            "bufferView" : 1,
            "componentType" : 5126,
            "count" : 536,
            "type" : "VEC3"
        },
        {
            "bufferView" : 2,
            "componentType" : 5123,
            "count" : 660,
            "type" : "SCALAR"
        },
        {
            "bufferView" : 3,
            "componentType" : 5126,
            "count" : 552,
            "max" : [
                0.24864399433135986,
                2.368699073791504,
                0.08188600093126297
            ],
            "min" : [
                -0.269991010427475,
                -2.402355909347534,
                -3.282052993774414
            ],
            "type" : "VEC3"
        },
        {
            "bufferView" : 4,
            "componentType" : 5126,
            "count" : 552,
            "type" : "VEC3"
        },
        {
            "bufferView" : 5,
            "componentType" : 5123,
            "count" : 918,
            "type" : "SCALAR"
        }
    ],
    "bufferViews" : [
        {
            "buffer" : 0,
            "byteLength" : 6432,
            "byteOffset" : 0
        },
        {
            "buffer" : 0,
            "byteLength" : 6432,
            "byteOffset" : 6432
        },
        {
            "buffer" : 0,
            "byteLength" : 1320,
            "byteOffset" : 12864
        },
        {
            "buffer" : 0,
            "byteLength" : 6624,
            "byteOffset" : 14184
        },
        {
            "buffer" : 0,
            "byteLength" : 6624,
            "byteOffset" : 20808
        },
        {
            "buffer" : 0,
            "byteLength" : 1836,
            "byteOffset" : 27432
        }
    ],
    "buffers" : [
        {
            "byteLength" : 29268,
            "uri" : "Tree2.bin"
        }
    ]
}
