# Blender v3.1.2 OBJ File: ''
# www.blender.org
mtllib airplane.mtl
o 立方体
v -0.771369 -0.686993 -0.409099
v -0.671116 0.775748 -0.409099
v -0.773183 -0.584169 0.592908
v -0.669225 0.688127 0.592908
v 0.000000 -0.864943 0.592907
v 0.000000 1.000000 0.592907
v -0.000000 -1.000000 -0.409099
v -0.000000 1.000000 -0.409099
v -0.771371 -0.686993 -3.270323
v -0.203806 0.748685 -5.883468
v -1.000000 0.000000 0.592908
v -0.000003 -0.170885 -8.379426
v -0.000003 2.225657 -7.630345
v -0.000001 1.000000 -2.184886
v -0.000002 0.971616 -5.339862
v -0.136393 0.892052 -5.339862
v -0.106400 0.964054 -2.204180
v -0.000001 -1.000000 -2.806663
v -0.000001 -1.000000 -1.709931
v -0.385340 -0.854989 -2.806662
v -0.385339 -0.854989 -1.709931
v 0.000001 0.000000 1.590901
v 0.000000 0.669221 1.193001
v 0.000000 -0.445602 1.486311
v -0.571461 0.000000 1.142255
v -0.415479 0.645025 0.972919
v -0.520271 -0.456084 1.027813
v -0.889408 0.260858 -0.409099
v 0.000000 0.225036 1.501686
v -0.447038 0.383942 -5.790648
v -0.000002 0.321106 -6.886425
v -0.332167 0.775748 -4.901237
v -0.771370 -0.686993 -1.976385
v -0.000002 1.000000 -4.872243
v -0.115180 0.964054 -4.879117
v -0.000001 -1.000000 -2.432909
v -0.385339 -0.854989 -2.432909
v -4.270154 0.383186 -1.624562
v -4.166023 0.447060 -2.195916
v -4.136876 0.551106 -2.197498
v -4.263666 0.533849 -1.624562
v -5.007119 0.666736 -2.254368
v -5.007119 0.760956 -2.622841
v -5.007119 0.814744 -2.624423
v -5.007119 0.720524 -2.254368
v -1.000000 0.000000 -0.409099
v -0.657295 0.000000 -4.500456
v -0.000003 0.000000 -8.379426
v -1.000001 0.000000 -2.177310
v -0.888771 0.231394 0.592908
v -2.736965 0.068838 -0.899981
v -0.550654 0.191335 1.145666
v -0.856815 0.260858 -2.178892
v -2.250372 0.077202 -1.984934
v -2.152678 0.279529 -1.986517
v -2.681669 0.271166 -0.899981
v 0.771369 -0.686993 -0.409099
v 0.671116 0.775748 -0.409099
v 0.773183 -0.584169 0.592907
v 0.669226 0.688127 0.592907
v 0.771369 -0.686993 -3.270324
v 0.203802 0.748685 -5.883468
v 1.000000 0.000000 0.592907
v 0.136390 0.892052 -5.339862
v 0.106399 0.964054 -2.204180
v 0.385338 -0.854989 -2.806663
v 0.385338 -0.854989 -1.709931
v 0.571461 0.000000 1.142254
v 0.415480 0.645025 0.972919
v 0.520272 -0.456084 1.027812
v 0.889408 0.260858 -0.409100
v 0.447034 0.383942 -5.790648
v 0.332164 0.775748 -4.901237
v 0.771369 -0.686993 -1.976386
v 0.115177 0.964054 -4.879117
v 0.385338 -0.854989 -2.432909
v 4.270153 0.383186 -1.624565
v 4.166021 0.447060 -2.195919
v 4.136874 0.551106 -2.197501
v 4.263665 0.533849 -1.624565
v 5.007117 0.666736 -2.254372
v 5.007117 0.760956 -2.622845
v 5.007117 0.814744 -2.624427
v 5.007117 0.720524 -2.254372
v 1.000000 0.000000 -0.409100
v 0.657292 0.000000 -4.500456
v 1.000000 0.000000 -2.177310
v 0.888772 0.231394 0.592907
v 2.736964 0.068838 -0.899983
v 0.550654 0.191335 1.145665
v 0.856814 0.260858 -2.178892
v 2.250370 0.077202 -1.984936
v 2.152676 0.279529 -1.986518
v 2.681668 0.271166 -0.899983
vt 0.811435 0.812875
vt 0.800905 0.801981
vt 0.812537 0.790363
vt 0.824391 0.798605
vt 0.838563 0.775624
vt 0.814409 0.769831
vt 0.797980 0.686520
vt 0.878965 0.667430
vt 0.852130 0.854976
vt 0.866636 0.808812
vt 0.986790 0.803268
vt 0.929106 0.934610
vt 0.782850 0.783303
vt 0.734292 0.733067
vt 0.776053 0.223714
vt 0.846884 0.227357
vt 0.979756 0.278437
vt 0.816794 0.268487
vt 0.741220 0.220981
vt 0.697046 0.255273
vt 0.431512 0.177391
vt 0.743574 0.183578
vt 0.701110 0.493309
vt 0.431955 0.364041
vt 0.360483 0.306155
vt 0.390227 0.280675
vt 0.330246 0.315063
vt 0.188540 0.168462
vt 0.601286 0.595467
vt 0.608426 0.585709
vt 0.406718 0.394177
vt 0.414162 0.385990
vt 0.385275 0.349802
vt 0.374226 0.360562
vt 0.983330 0.188331
vt 0.848131 0.185650
vt 0.777828 0.184257
vt 0.823227 0.825074
vt 0.842499 0.815215
vt 0.829871 0.802295
vt 0.815766 0.817356
vt 0.849693 0.781902
vt 0.508553 0.312645
vt 0.029592 0.004025
vt 0.722755 0.467726
vt 0.918789 0.686383
vt 0.238831 0.426180
vt 0.220530 0.441149
vt 0.116277 0.271965
vt 0.130914 0.264225
vt 0.041688 0.290575
vt 0.025081 0.198484
vt 0.051279 0.192821
vt 0.104101 0.523710
vt 0.078442 0.519387
vt 0.030266 0.292510
vt 0.380385 0.101762
vt 0.376162 0.012572
vt 0.505620 0.009074
vt 0.518704 0.050950
vt 0.054416 0.187732
vt 0.019551 0.194521
vt 0.579416 0.026574
vt 0.593348 0.051504
vt 0.974488 0.355836
vt 0.785383 0.340946
vt 0.588318 0.272617
vt 0.414713 0.177058
vt 0.315352 0.626555
vt 0.128641 0.675734
vt 0.302952 0.157094
vt 0.243048 0.038602
vt 0.097588 0.665491
vt 0.336166 0.602801
vt 0.796734 0.825340
vt 0.788899 0.813212
vt 0.773284 0.838723
vt 0.663782 0.875429
vt 0.685610 0.795138
vt 0.768315 0.814386
vt 0.795881 0.987803
vt 0.805501 0.867907
vt 0.777618 0.144760
vt 0.820102 0.101637
vt 0.983330 0.098153
vt 0.848538 0.143927
vt 0.742705 0.146110
vt 0.699924 0.110094
vt 0.495799 0.691764
vt 0.293841 0.373843
vt 0.320317 0.344980
vt 0.375742 0.418376
vt 0.591292 0.602271
vt 0.398283 0.401339
vt 0.363096 0.371239
vt 0.812720 0.844000
vt 0.800235 0.830941
vt 0.779182 0.850059
vt 0.321777 0.493186
vt 0.469496 0.712528
vt 0.681371 0.915873
vt 0.262643 0.777273
vt 0.442166 0.852423
vt 0.437350 0.868265
vt 0.251428 0.798087
vt 0.527410 0.917027
vt 0.526832 0.943823
vt 0.433264 0.945031
vt 0.192515 0.928092
vt 0.433536 0.956613
vt 0.201638 0.952461
vt 0.829331 0.507482
vt 0.731761 0.397055
vt 0.763169 0.366423
vt 0.875421 0.431007
vt 0.531809 0.912979
vt 0.531775 0.948498
vt 0.665815 0.362079
vt 0.689919 0.346761
vt 0.791587 0.027990
vt 0.981134 0.020606
vt 0.591969 0.088455
vt 0.051374 0.740253
vt 0.038597 0.932909
vt 0.871178 0.592959
vt 0.980185 0.517154
vt 0.054559 0.961448
vt 0.070736 0.715302
vn 0.0000 0.3743 0.9273
vn 0.0000 0.7101 0.7041
vn -0.5266 0.6385 0.5612
vn -0.6613 0.3247 0.6762
vn -0.8802 0.3757 0.2899
vn -0.6872 0.6767 0.2642
vn -0.6691 0.7431 0.0025
vn -0.7770 0.5995 0.1919
vn 0.0000 -0.9624 0.2716
vn -0.7007 -0.6492 0.2960
vn -0.7151 -0.6981 0.0368
vn 0.0000 -0.9981 0.0610
vn 0.0000 0.9724 0.2332
vn 0.0000 0.9998 0.0217
vn -0.3757 -0.9267 0.0000
vn -0.3782 -0.9257 0.0016
vn -0.7564 -0.6537 -0.0214
vn -0.3524 -0.9345 -0.0503
vn -0.7578 -0.6415 -0.1194
vn -0.0000 -0.7360 -0.6770
vn 0.0000 -0.9975 -0.0713
vn -0.7606 0.6006 -0.2466
vn -0.7472 0.6600 -0.0782
vn -0.9527 0.3004 -0.0467
vn -0.9327 0.3171 -0.1717
vn -0.0000 0.8308 -0.5565
vn 0.0000 0.7079 -0.7063
vn -0.0000 1.0000 0.0001
vn -0.3865 0.9222 -0.0097
vn -0.0000 0.9990 -0.0453
vn -0.4640 0.8843 -0.0524
vn -0.7044 0.7096 -0.0188
vn 0.0000 0.9966 0.0818
vn -0.0000 -1.0000 0.0029
vn 0.0000 -1.0000 0.0000
vn 0.0000 -0.5678 0.8232
vn -0.5836 -0.5585 0.5895
vn -0.7190 -0.0103 0.6950
vn 0.0000 -0.0249 0.9997
vn -0.9557 0.0131 0.2941
vn -0.9858 0.0928 -0.1399
vn -0.0000 -0.2185 -0.9758
vn -0.8614 -0.2838 -0.4212
vn -0.9015 -0.2707 0.3377
vn -0.3392 -0.6768 0.6534
vn -0.1870 0.6983 0.6909
vn -0.2942 0.6811 0.6705
vn -0.5226 -0.6575 0.5428
vn 0.3114 0.7164 -0.6244
vn -0.3761 0.6223 -0.6865
vn -0.6552 0.6454 0.3927
vn 0.0024 0.7410 -0.6715
vn -0.0661 -0.7324 -0.6776
vn 0.0116 -0.7327 -0.6805
vn -0.7895 -0.5584 0.2548
vn -0.5001 -0.4557 -0.7364
vn 0.6613 0.3247 0.6762
vn 0.5266 0.6385 0.5612
vn 0.8802 0.3757 0.2899
vn 0.7770 0.5995 0.1919
vn 0.6691 0.7431 0.0025
vn 0.6872 0.6767 0.2642
vn 0.7151 -0.6981 0.0368
vn 0.7007 -0.6492 0.2960
vn 0.3757 -0.9267 -0.0000
vn 0.7564 -0.6537 -0.0214
vn 0.3782 -0.9257 0.0016
vn 0.3524 -0.9345 -0.0503
vn 0.7578 -0.6415 -0.1194
vn 0.7606 0.6006 -0.2466
vn 0.9327 0.3171 -0.1717
vn 0.9527 0.3004 -0.0467
vn 0.7472 0.6600 -0.0782
vn 0.3865 0.9222 -0.0097
vn 0.4640 0.8843 -0.0524
vn 0.7044 0.7096 -0.0188
vn 0.5836 -0.5585 0.5895
vn 0.7190 -0.0103 0.6950
vn 0.9557 0.0131 0.2941
vn 0.9858 0.0928 -0.1399
vn 0.8614 -0.2838 -0.4212
vn 0.9015 -0.2707 0.3377
vn 0.3392 -0.6768 0.6534
vn 0.5226 -0.6575 0.5428
vn 0.2942 0.6811 0.6705
vn 0.1870 0.6983 0.6909
vn 0.6552 0.6454 0.3927
vn 0.3761 0.6223 -0.6865
vn -0.3114 0.7164 -0.6244
vn -0.0024 0.7410 -0.6715
vn -0.0116 -0.7327 -0.6805
vn 0.0661 -0.7324 -0.6776
vn 0.7895 -0.5584 0.2548
vn 0.5001 -0.4557 -0.7364
usemtl マテリアル
s 1
f 29/1/1 23/2/2 26/3/3 52/4/4
f 50/5/5 4/6/6 2/7/7 28/8/8
f 5/9/9 3/10/10 1/11/11 7/12/12
f 4/6/6 6/13/13 8/14/14 2/7/7
f 37/15/15 21/16/16 1/17/11 33/18/17
f 20/19/18 9/20/19 12/21/20 18/22/21
f 53/23/22 32/24/23 10/25/24 30/26/25
f 30/26/25 10/25/24 13/27/26 31/28/27
f 2/7/7 8/14/14 14/29/28 17/30/29
f 34/31/30 35/32/31 17/30/29 14/29/28
f 10/25/24 16/33/32 15/34/33 13/27/26
f 32/24/23 2/7/7 17/30/29 35/32/31
f 7/35/12 1/17/11 21/16/16 19/36/34
f 36/37/35 37/15/15 20/19/18 18/22/21
f 5/9/9 24/38/36 27/39/37 3/10/10
f 52/4/4 26/3/3 4/6/6 50/5/5
f 4/6/6 26/3/3 23/2/2 6/13/13
f 25/40/38 27/39/37 24/38/36 22/41/39
f 25/40/38 52/4/4 50/5/5 11/42/40
f 47/43/41 30/26/25 31/28/27 48/44/42
f 49/45/43 53/23/22 30/26/25 47/43/41
f 11/42/40 50/5/5 28/8/8 46/46/44
f 22/41/39 29/1/1 52/4/4 25/40/38
f 51/47/45 56/48/46 41/49/47 38/50/48
f 19/36/34 21/16/16 37/15/15 36/37/35
f 10/25/24 32/24/23 35/32/31 16/33/32
f 15/34/33 16/33/32 35/32/31 34/31/30
f 28/8/8 2/7/7 32/24/23 53/23/22
f 20/19/18 37/15/15 33/18/17 9/20/19
f 41/49/47 40/51/49 44/52/50 45/53/51
f 55/54/52 54/55/53 39/56/54 40/51/49
f 54/57/53 51/58/45 38/59/48 39/60/54
f 56/48/46 55/54/52 40/51/49 41/49/47
f 42/61/55 45/53/51 44/52/50 43/62/56
f 39/60/54 38/59/48 42/63/55 43/64/56
f 38/50/48 41/49/47 45/53/51 42/61/55
f 40/51/49 39/56/54 43/62/56 44/52/50
f 1/17/11 46/65/44 49/66/43 33/18/17
f 3/10/10 27/39/37 25/40/38 11/42/40
f 3/10/10 11/42/40 46/46/44 1/11/11
f 33/18/17 49/66/43 47/67/41 9/20/19
f 9/20/19 47/67/41 48/68/42 12/21/20
f 28/69/8 53/70/22 55/54/52 56/48/46
f 49/71/43 46/72/44 51/58/45 54/57/53
f 53/70/22 49/73/43 54/55/53 55/54/52
f 46/74/44 28/69/8 56/48/46 51/47/45
f 29/1/1 90/75/57 69/76/58 23/2/2
f 88/77/59 71/78/60 58/79/61 60/80/62
f 5/9/9 7/12/12 57/81/63 59/82/64
f 60/80/62 58/79/61 8/14/14 6/13/13
f 76/83/65 74/84/66 57/85/63 67/86/67
f 66/87/68 18/22/21 12/21/20 61/88/69
f 91/89/70 72/90/71 62/91/72 73/92/73
f 72/90/71 31/28/27 13/27/26 62/91/72
f 58/79/61 65/93/74 14/29/28 8/14/14
f 34/31/30 14/29/28 65/93/74 75/94/75
f 62/91/72 13/27/26 15/34/33 64/95/76
f 73/92/73 75/94/75 65/93/74 58/79/61
f 7/35/12 19/36/34 67/86/67 57/85/63
f 36/37/35 18/22/21 66/87/68 76/83/65
f 5/9/9 59/82/64 70/96/77 24/38/36
f 90/75/57 88/77/59 60/80/62 69/76/58
f 60/80/62 6/13/13 23/2/2 69/76/58
f 68/97/78 22/41/39 24/38/36 70/96/77
f 68/97/78 63/98/79 88/77/59 90/75/57
f 86/99/80 48/44/42 31/28/27 72/90/71
f 87/100/81 86/99/80 72/90/71 91/89/70
f 63/98/79 85/101/82 71/78/60 88/77/59
f 22/41/39 68/97/78 90/75/57 29/1/1
f 89/102/83 77/103/84 80/104/85 94/105/86
f 19/36/34 36/37/35 76/83/65 67/86/67
f 62/91/72 64/95/76 75/94/75 73/92/73
f 15/34/33 34/31/30 75/94/75 64/95/76
f 71/78/60 91/89/70 73/92/73 58/79/61
f 66/87/68 61/88/69 74/84/66 76/83/65
f 80/104/85 84/106/87 83/107/88 79/108/89
f 93/109/90 79/108/89 78/110/91 92/111/92
f 92/112/92 78/113/91 77/114/84 89/115/83
f 94/105/86 80/104/85 79/108/89 93/109/90
f 81/116/93 82/117/94 83/107/88 84/106/87
f 78/113/91 82/118/94 81/119/93 77/114/84
f 77/103/84 81/116/93 84/106/87 80/104/85
f 79/108/89 83/107/88 82/117/94 78/110/91
f 57/85/63 74/84/66 87/120/81 85/121/82
f 59/82/64 63/98/79 68/97/78 70/96/77
f 59/82/64 57/81/63 85/101/82 63/98/79
f 74/84/66 61/88/69 86/122/80 87/120/81
f 61/88/69 12/21/20 48/68/42 86/122/80
f 71/123/60 94/105/86 93/109/90 91/124/70
f 87/125/81 92/112/92 89/115/83 85/126/82
f 91/124/70 93/109/90 92/111/92 87/127/81
f 85/128/82 89/102/83 94/105/86 71/123/60
