# Blender v3.1.2 OBJ File: ''
# www.blender.org
mtllib hanabiHosi.mtl
o 円柱
v 0.000000 -0.000000 0.500000
v -0.000000 0.000000 -0.500000
v -0.460200 0.000000 0.000000
v -0.809017 -0.587785 0.000000
v -0.142210 -0.437676 -0.000000
v 0.309017 -0.951056 -0.000000
v 0.372310 -0.270499 -0.000000
v 1.000000 0.000000 0.000000
v 0.372310 0.270499 0.000000
v 0.309017 0.951056 0.000000
v -0.142210 0.437676 0.000000
v -0.809017 0.587785 0.000000
vt 1.000000 0.750000
vt 0.900000 1.000000
vt 0.900000 0.750000
vt 0.800000 1.000000
vt 0.800000 0.750000
vt 0.700000 1.000000
vt 0.700000 0.750000
vt 0.600000 1.000000
vt 0.600000 0.750000
vt 0.500000 1.000000
vt 0.500000 0.750000
vt 0.400000 1.000000
vt 0.400000 0.750000
vt 0.300000 1.000000
vt 0.300000 0.750000
vt 0.200000 1.000000
vt 0.200000 0.750000
vt 0.100000 1.000000
vt 0.100000 0.750000
vt -0.000000 1.000000
vt -0.000000 0.750000
vt 0.100000 0.500000
vt 0.200000 0.500000
vt 0.300000 0.500000
vt 0.400000 0.500000
vt 0.500000 0.500000
vt 0.600000 0.500000
vt 0.700000 0.500000
vt 0.800000 0.500000
vt 0.900000 0.500000
vt 1.000000 0.500000
vn -0.6743 0.4002 -0.6206
vn 0.1722 -0.7650 -0.6206
vn -0.5889 -0.5176 -0.6206
vn 0.7807 -0.0726 -0.6206
vn 0.3103 -0.7201 -0.6206
vn 0.3103 0.7201 -0.6206
vn 0.7807 0.0726 -0.6206
vn -0.5889 0.5176 -0.6206
vn 0.1722 0.7650 -0.6206
vn -0.6743 -0.4002 -0.6206
vn -0.6743 -0.4002 0.6206
vn 0.1722 0.7650 0.6206
vn -0.5889 0.5176 0.6206
vn 0.7807 0.0726 0.6206
vn 0.3103 0.7201 0.6206
vn 0.3103 -0.7201 0.6206
vn 0.7807 -0.0726 0.6206
vn -0.5889 -0.5176 0.6206
vn 0.1722 -0.7650 0.6206
vn -0.6743 0.4002 0.6206
usemtl None
s off
f 3/1/1 2/2/1 4/3/1
f 4/3/2 2/4/2 5/5/2
f 5/5/3 2/6/3 6/7/3
f 6/7/4 2/8/4 7/9/4
f 7/9/5 2/10/5 8/11/5
f 8/11/6 2/12/6 9/13/6
f 9/13/7 2/14/7 10/15/7
f 10/15/8 2/16/8 11/17/8
f 11/17/9 2/18/9 12/19/9
f 12/19/10 2/20/10 3/21/10
f 1/22/11 12/19/11 3/21/11
f 1/23/12 11/17/12 12/19/12
f 1/24/13 10/15/13 11/17/13
f 1/25/14 9/13/14 10/15/14
f 1/26/15 8/11/15 9/13/15
f 1/27/16 7/9/16 8/11/16
f 1/28/17 6/7/17 7/9/17
f 1/29/18 5/5/18 6/7/18
f 1/30/19 4/3/19 5/5/19
f 1/31/20 3/1/20 4/3/20
