{
    "asset" : {
        "generator" : "Khronos glTF Blender I/O v1.8.19",
        "version" : "2.0"
    },
    "scene" : 0,
    "scenes" : [
        {
            "name" : "Scene",
            "nodes" : [
                0
            ]
        }
    ],
    "nodes" : [
        {
            "mesh" : 0,
            "name" : "Bush3_Icosphere.004",
            "rotation" : [
                0.7071068286895752,
                0,
                0,
                0.7071067094802856
            ]
        }
    ],
    "materials" : [
        {
            "doubleSided" : true,
            "name" : "Leaves",
            "pbrMetallicRoughness" : {
                "baseColorFactor" : [
                    0.5211250185966492,
                    0.6392819881439209,
                    0.18157300353050232,
                    1
                ],
                "metallicFactor" : 0,
                "roughnessFactor" : 0.690034806728363
            }
        },
        {
            "doubleSided" : true,
            "name" : "Tree",
            "pbrMetallicRoughness" : {
                "baseColorFactor" : [
                    0.19696100056171417,
                    0.06255000084638596,
                    0.009828999638557434,
                    1
                ],
                "metallicFactor" : 0,
                "roughnessFactor" : 0.690034806728363
            }
        }
    ],
    "meshes" : [
        {
            "name" : "Bush3_Icosphere.004",
            "primitives" : [
                {
                    "attributes" : {
                        "POSITION" : 0,
                        "NORMAL" : 1
                    },
                    "indices" : 2,
                    "material" : 0
                },
                {
                    "attributes" : {
                        "POSITION" : 3,
                        "NORMAL" : 4
                    },
                    "indices" : 5,
                    "material" : 1
                }
            ]
        }
    ],
    "accessors" : [
        {
            "bufferView" : 0,
            "componentType" : 5126,
            "count" : 72,
            "max" : [
                0.379287987947464,
                0.4773010015487671,
                -0.42712900042533875
            ],
            "min" : [
                -0.4759320020675659,
                -0.4788669943809509,
                -1.240483045578003
            ],
            "type" : "VEC3"
        },
        {
            "bufferView" : 1,
            "componentType" : 5126,
            "count" : 72,
            "type" : "VEC3"
        },
        {
            "bufferView" : 2,
            "componentType" : 5123,
            "count" : 96,
            "type" : "SCALAR"
        },
        {
            "bufferView" : 3,
            "componentType" : 5126,
            "count" : 138,
            "max" : [
                0.1030379980802536,
                0.10579700022935867,
                0.01154599990695715
            ],
            "min" : [
                -0.1452299952507019,
                -0.10706999897956848,
                -0.4581789970397949
            ],
            "type" : "VEC3"
        },
        {
            "bufferView" : 4,
            "componentType" : 5126,
            "count" : 138,
            "type" : "VEC3"
        },
        {
            "bufferView" : 5,
            "componentType" : 5123,
            "count" : 216,
            "type" : "SCALAR"
        }
    ],
    "bufferViews" : [
        {
            "buffer" : 0,
            "byteLength" : 864,
            "byteOffset" : 0
        },
        {
            "buffer" : 0,
            "byteLength" : 864,
            "byteOffset" : 864
        },
        {
            "buffer" : 0,
            "byteLength" : 192,
            "byteOffset" : 1728
        },
        {
            "buffer" : 0,
            "byteLength" : 1656,
            "byteOffset" : 1920
        },
        {
            "buffer" : 0,
            "byteLength" : 1656,
            "byteOffset" : 3576
        },
        {
            "buffer" : 0,
            "byteLength" : 432,
            "byteOffset" : 5232
        }
    ],
    "buffers" : [
        {
            "byteLength" : 5664,
            "uri" : "Bush3.bin"
        }
    ]
}
