{
    "asset" : {
        "generator" : "Khronos glTF Blender I/O v1.8.19",
        "version" : "2.0"
    },
    "scene" : 0,
    "scenes" : [
        {
            "name" : "Scene",
            "nodes" : [
                0
            ]
        }
    ],
    "nodes" : [
        {
            "mesh" : 0,
            "name" : "Tree3_Icosphere.008",
            "rotation" : [
                0.7071068286895752,
                0,
                0,
                0.7071067094802856
            ]
        }
    ],
    "materials" : [
        {
            "doubleSided" : true,
            "name" : "Tree",
            "pbrMetallicRoughness" : {
                "baseColorFactor" : [
                    0.19696000218391418,
                    0.09103500097990036,
                    0.03682899847626686,
                    1
                ],
                "metallicFactor" : 0,
                "roughnessFactor" : 0.690034806728363
            }
        },
        {
            "doubleSided" : true,
            "name" : "Leaves",
            "pbrMetallicRoughness" : {
                "baseColorFactor" : [
                    0.5211250185966492,
                    0.6392819881439209,
                    0.18157300353050232,
                    1
                ],
                "metallicFactor" : 0,
                "roughnessFactor" : 0.690034806728363
            }
        }
    ],
    "meshes" : [
        {
            "name" : "Tree3_Icosphere.008",
            "primitives" : [
                {
                    "attributes" : {
                        "POSITION" : 0,
                        "NORMAL" : 1
                    },
                    "indices" : 2,
                    "material" : 0
                },
                {
                    "attributes" : {
                        "POSITION" : 3,
                        "NORMAL" : 4
                    },
                    "indices" : 5,
                    "material" : 1
                }
            ]
        }
    ],
    "accessors" : [
        {
            "bufferView" : 0,
            "componentType" : 5126,
            "count" : 574,
            "max" : [
                0.15389899909496307,
                0.6347640156745911,
                0.02022700011730194
            ],
            "min" : [
                -0.16266700625419617,
                -1.8699640035629272,
                -2.1906609535217285
            ],
            "type" : "VEC3"
        },
        {
            "bufferView" : 1,
            "componentType" : 5126,
            "count" : 574,
            "type" : "VEC3"
        },
        {
            "bufferView" : 2,
            "componentType" : 5123,
            "count" : 882,
            "type" : "SCALAR"
        },
        {
            "bufferView" : 3,
            "componentType" : 5126,
            "count" : 174,
            "max" : [
                0.9526860117912292,
                1.3738980293273926,
                -1.6303770542144775
            ],
            "min" : [
                -1.108638048171997,
                -2.573668956756592,
                -4.061783790588379
            ],
            "type" : "VEC3"
        },
        {
            "bufferView" : 4,
            "componentType" : 5126,
            "count" : 174,
            "type" : "VEC3"
        },
        {
            "bufferView" : 5,
            "componentType" : 5123,
            "count" : 300,
            "type" : "SCALAR"
        }
    ],
    "bufferViews" : [
        {
            "buffer" : 0,
            "byteLength" : 6888,
            "byteOffset" : 0
        },
        {
            "buffer" : 0,
            "byteLength" : 6888,
            "byteOffset" : 6888
        },
        {
            "buffer" : 0,
            "byteLength" : 1764,
            "byteOffset" : 13776
        },
        {
            "buffer" : 0,
            "byteLength" : 2088,
            "byteOffset" : 15540
        },
        {
            "buffer" : 0,
            "byteLength" : 2088,
            "byteOffset" : 17628
        },
        {
            "buffer" : 0,
            "byteLength" : 600,
            "byteOffset" : 19716
        }
    ],
    "buffers" : [
        {
            "byteLength" : 20316,
            "uri" : "Tree3.bin"
        }
    ]
}
